# xmcd CD database file
#
# Track frame offsets:
#	150
#	20587
#	44630
#	71455
#	92322
#	116842
#	149710
#	174342
#	203815
#	225052
#
# Disc length: 3272 seconds
#
# Revision: 0
# Processed by: cddbd v1.5.1PL0 Copyright (c) Steve Scherf et al.
# Submitted via: CD2WAV32(JP) R3.22
#
DISCID=820cc60a
DTITLE=是方博邦 - PLANET GUITARMAN
DYEAR=2000
DGENRE=Fusion
TTITLE0=PLANET GUITARMAN I
TTITLE1=GRAND G WAVE
TTITLE2=EAGLE
TTITLE3=PLANET GUITARMAN II
TTITLE4=SUPER ARBY
TTITLE5=ACOUSTIC STORIES
TTITLE6=LA MERODIE DE LA SEINE
TTITLE7=MOONLIGHT MEMORIES
TTITLE8=STORM NAMIBU
TTITLE9=CASTLE OF THE WIND
EXTD=
EXTT0=
EXTT1=
EXTT2=
EXTT3=
EXTT4=
EXTT5=
EXTT6=
EXTT7=
EXTT8=
EXTT9=
PLAYORDER=
